Exact Audio Copy V0.99 prebeta 1 from 25. May 2007

EAC 抓取日志文件从20. 十一月 2010, 12:18

吴雁泽 / 20世纪中华歌坛名人百集珍藏版

使用驱动器  ：BENQ    DVD-ROM 16X   Adapter: 0  ID: 1

读取模式     : 保护
使用精确流   : 是
废除音频缓冲 : 是
使用 C2 指针 : 否

读取偏移校正                   : 738
读取 Lead-In 和 Lead-Out       : 否
用静音填充抓取中丢失偏移的采样 : 是
去除首尾静音块                 : 否
已用接口                       : Win NT 及 2000 本地 Win32 接口

所用输出格式 : 内部 WAV 函数
样本格式     : 44.100 Hz;16 Bit;立体声


被抓轨 CD 的 TOC

     音轨 |   开始   |   长度   | 起始扇区 | 结尾扇区 
    --------------------------------------------------
       1  |  0:00.00 |  3:33.02 |       0  |   15976  
       2  |  3:33.02 |  2:32.50 |   15977  |   27426  
       3  |  6:05.52 |  5:53.20 |   27427  |   53921  
       4  | 11:58.72 |  3:21.33 |   53922  |   69029  
       5  | 15:20.30 |  4:18.70 |   69030  |   88449  
       6  | 19:39.25 |  1:59.52 |   88450  |   97426  
       7  | 21:39.02 |  4:32.58 |   97427  |  117884  
       8  | 26:11.60 |  7:02.65 |  117885  |  149599  
       9  | 33:14.50 |  3:40.30 |  149600  |  166129  
      10  | 36:55.05 |  4:26.72 |  166130  |  186151  
      11  | 41:22.02 |  6:16.55 |  186152  |  214406  
      12  | 47:38.57 |  3:49.58 |  214407  |  231639  
      13  | 51:28.40 |  2:30.65 |  231640  |  242954  
      14  | 53:59.30 |  2:34.65 |  242955  |  254569  
      15  | 56:34.20 |  5:20.40 |  254570  |  278609  


范围状态及错误

已选择范围

     文件名 E:\文件夹\20世纪中华歌坛名人百集珍藏版-吴雁泽[lwg188原创]\吴雁泽 - 20世纪中华歌坛名人百集珍藏版.wav

     峰值电平 100.0 %
     范围质量 99.9 %
     复制 CRC 9D04F393
     复制成功

没有错误发生

状态报告结尾
